<?xml version="1.0" encoding="UTF-8"?>
<svg xmlns="http://www.w3.org/2000/svg" viewBox="0 0 1024 1024" role="img" aria-labelledby="title desc">
  <title id="title">音のメモ</title>
  <desc id="desc">明るい計器面に七つの白鍵、五つの黒鍵、押した位置を示すオレンジの点</desc>
  <defs>
    <filter id="shadow" x="-20%" y="-20%" width="140%" height="150%">
      <feDropShadow dx="0" dy="20" stdDeviation="20" flood-color="#1f1f1c" flood-opacity="0.24"/>
    </filter>
  </defs>
  <g filter="url(#shadow)">
    <rect x="72" y="52" width="880" height="880" rx="196" fill="#f9f6ee" stroke="#1f1f1c" stroke-width="26"/>
    <rect x="132" y="230" width="760" height="626" rx="34" fill="#1f1f1c"/>

    <g fill="#f9f6ee" stroke="#1f1f1c" stroke-width="5">
      <path d="M156 250h92v552q0 14-14 14h-64q-14 0-14-14z"/>
      <path d="M258 250h92v552q0 14-14 14h-64q-14 0-14-14z"/>
      <path d="M360 250h92v552q0 14-14 14h-64q-14 0-14-14z"/>
      <path d="M462 250h92v552q0 14-14 14h-64q-14 0-14-14z"/>
      <path d="M564 250h92v552q0 14-14 14h-64q-14 0-14-14z"/>
      <path d="M666 250h92v552q0 14-14 14h-64q-14 0-14-14z"/>
      <path d="M768 250h92v552q0 14-14 14h-64q-14 0-14-14z"/>
    </g>

    <g fill="#171716">
      <path d="M224 246h58v302q0 12-12 12h-34q-12 0-12-12z"/>
      <path d="M326 246h58v302q0 12-12 12h-34q-12 0-12-12z"/>
      <path d="M530 246h58v302q0 12-12 12h-34q-12 0-12-12z"/>
      <path d="M632 246h58v302q0 12-12 12h-34q-12 0-12-12z"/>
      <path d="M734 246h58v302q0 12-12 12h-34q-12 0-12-12z"/>
    </g>

    <circle cx="508" cy="702" r="62" fill="#1f1f1c"/>
    <circle cx="508" cy="702" r="45" fill="#e88f1f"/>
  </g>
</svg>
